<svg width="50" height="58" viewBox="0 0 50 58" fill="none" xmlns="http://www.w3.org/2000/svg">
<g clip-path="url(#clip0_187_190)">
<path d="M25 0L0 14.432L25 28.9261L50 14.432L25 0Z" fill="#DB5461"/>
<path d="M25 28.9261V57.7436L0 43.3116V14.432L25 28.9261Z" fill="#C92746"/>
<path d="M50 14.432V43.3116L25 57.7436V28.9261L50 14.432Z" fill="#D34063"/>
<path d="M40.4645 30.1953C41.4887 29.2952 47.3856 23.3517 47.665 22.9327C47.8201 22.7155 47.8822 22.4827 47.8822 22.0792C47.8822 21.5982 47.8357 21.4895 47.4787 21.024C46.8735 20.2636 36.7401 10.1767 36.4607 10.0681C36.1969 9.97495 33.295 9.94391 32.8294 10.037C32.5191 10.0991 32.5191 10.0991 32.5191 10.7509C32.5191 11.1078 32.4725 11.6509 32.426 11.9768C32.3484 12.4424 32.3639 12.6131 32.488 12.8458C32.5656 13.001 32.6432 13.3579 32.6432 13.6373C32.6587 14.8167 31.8208 15.6702 30.6569 15.7012C29.881 15.7167 29.2447 15.3132 28.8878 14.5994C28.4843 13.7924 28.5619 13.0631 29.1671 12.3648C29.4154 12.0699 29.5085 11.8371 29.5861 11.3561C29.7723 10.2388 29.7723 10.2543 29.1206 10.3319C28.205 10.4405 27.7239 10.5957 27.5843 10.8129C27.3515 11.1854 26.9946 14.3356 26.8859 17.1289C26.7773 19.6584 26.2962 18.8825 31.2311 23.8949C33.5743 26.2692 36.1504 28.8297 36.9573 29.5746L38.4005 30.9247H39.0213H39.642L40.4645 30.1953ZM25.8307 17.5789C25.9704 17.4392 26.0635 17.2685 26.0635 17.191C26.0635 17.1134 25.8617 16.5702 25.6134 15.996C25.3651 15.4219 25.0237 14.4442 24.8685 13.8235C24.6047 12.8148 24.5737 12.5355 24.5582 11.2319C24.5427 9.92839 24.5737 9.71113 24.7599 9.30766C25.272 8.20585 26.2186 7.56961 27.3515 7.55409C28.2981 7.55409 28.8568 7.78686 29.493 8.42311C30.4086 9.33869 30.5327 10.006 30.1758 12.101C29.8654 14.0097 29.943 14.3977 30.6103 14.3977C31.2466 14.3977 31.3397 14.2114 31.6501 12.3648C32.1001 9.69561 31.65 8.12826 30.1137 6.94887C29.2292 6.28158 28.4688 6.04881 27.2118 6.09536C26.3117 6.1264 26.1411 6.17295 25.5514 6.45228C24.403 7.01094 23.534 8.12827 23.1771 9.44732C23.0063 10.0991 23.0064 12.0078 23.1926 13.0321C23.2702 13.4821 23.4564 14.2425 23.596 14.7391C23.9064 15.8253 24.7289 17.5634 24.9927 17.7186C25.3031 17.8893 25.5824 17.8427 25.8307 17.5789Z" fill="white"/>
</g>
<defs>
<clipPath id="clip0_187_190">
<rect width="50" height="57.7436" fill="white"/>
</clipPath>
</defs>
</svg>
